<svg width="90" height="17" viewBox="0 0 90 17" fill="none" xmlns="http://www.w3.org/2000/svg">
<g clip-path="url(#clip0)">
<path fill-rule="evenodd" clip-rule="evenodd" d="M5.53987 13.5152L5.42538 13.7784C4.62397 15.8085 3.86072 16.4288 2.9639 16.5227C3.21195 16.2972 3.44093 15.9212 3.44093 15.4325C3.44093 14.737 2.90665 14.2107 2.23881 14.2107C1.43739 14.2107 0.979445 14.8498 0.979445 15.4701C0.979445 16.3536 1.62821 16.9175 2.73492 16.9175C3.82255 16.9175 4.83386 16.2596 5.76884 14.0227L9.10807 6.128C9.48969 5.18815 10.1194 4.77462 10.8826 4.69943V4.47387H7.19994V4.69943C8.59287 4.8874 8.89817 5.33853 8.38298 6.61672L6.72291 10.7521L4.52856 5.71447C4.24234 5.05657 4.43315 4.79342 5.52079 4.69943V4.47387H0.273438V4.69943C1.20842 4.83101 1.49464 5.03778 1.91443 5.94003L5.53987 13.5152ZM14.3555 13.3085C15.5767 13.3085 16.6261 12.6318 17.4276 11.3724V13.1581H21.2438V12.9325C20.1753 12.8949 19.9272 12.7445 19.9272 12.2182V4.43627L16.0537 4.51146V4.73703C17.1032 4.77462 17.3894 5.09417 17.3894 5.65808V10.9588C16.8933 11.7295 16.3781 12.143 15.6912 12.143C14.718 12.143 14.2982 11.5039 14.2982 10.3385V4.43627L10.4438 4.51146V4.73703C11.5314 4.75582 11.7604 5.09417 11.7604 5.65808V10.5641C11.7604 12.3874 12.7526 13.3085 14.3555 13.3085ZM27.6359 13.1581H32.1582V12.9325C31.3568 12.9137 31.1469 12.7633 31.1469 12.237V7.03026C31.1469 6.95507 31.1469 6.86109 31.1278 6.72951C31.6812 5.92124 32.3299 5.48891 32.826 5.48891C33.7801 5.48891 34.1426 6.1468 34.1426 7.27462V12.237C34.1426 12.7633 33.9709 12.9137 33.2077 12.9325V13.1581H37.9971V12.9325C36.8903 12.9137 36.6805 12.7633 36.6805 12.237V7.08665C36.6805 5.31973 35.879 4.37988 34.2762 4.37988C33.0932 4.37988 31.872 5.16936 31.0896 6.33477C30.8797 5.05657 30.0974 4.37988 28.7617 4.37988C27.5024 4.37988 26.4147 5.11297 25.5942 6.31597V4.43627L21.7589 4.60545V4.83101C22.8656 4.84981 23.0946 5.20695 23.0946 5.77086V12.237C23.0946 12.7633 22.8656 12.9137 21.7589 12.9325V13.1581H26.5483V12.9325C25.785 12.9137 25.6324 12.7633 25.6324 12.237V6.72951C26.1285 5.97763 26.5483 5.48891 27.2352 5.48891C28.1893 5.48891 28.6091 6.1468 28.6091 7.27462V12.237C28.6091 12.7633 28.4183 12.9137 27.6359 12.9325V13.1581ZM57.2502 13.5152L57.1357 13.7784C56.3343 15.8085 55.571 16.4288 54.6742 16.5227C54.9223 16.2972 55.1513 15.9212 55.1513 15.4325C55.1513 14.737 54.617 14.2107 53.9491 14.2107C53.1477 14.2107 52.6898 14.8498 52.6898 15.4701C52.6898 16.3536 53.3385 16.9175 54.4452 16.9175C55.5329 16.9175 56.5442 16.2596 57.4792 14.0227L60.8184 6.128C61.2 5.18815 61.8297 4.77462 62.593 4.69943V4.47387H58.9103V4.69943C60.3032 4.8874 60.6085 5.33853 60.0933 6.61672L58.4332 10.7521L56.2389 5.71447C55.9527 5.05657 56.1435 4.79342 57.2311 4.69943V4.47387H51.9838V4.69943C52.9187 4.83101 53.205 5.03778 53.6248 5.94003L57.2502 13.5152ZM66.0656 13.3085C67.2868 13.3085 68.3363 12.6318 69.1377 11.3724V13.1581H72.954V12.9325C71.8854 12.8949 71.6374 12.7445 71.6374 12.2182V4.43627L67.7639 4.51146V4.73703C68.8133 4.77462 69.0996 5.09417 69.0996 5.65808V10.9588C68.6034 11.7295 68.0883 12.143 67.4013 12.143C66.4282 12.143 66.0084 11.5039 66.0084 10.3385V4.43627L62.154 4.51146V4.73703C63.2416 4.75582 63.4706 5.09417 63.4706 5.65808V10.5641C63.4706 12.3874 64.4628 13.3085 66.0656 13.3085ZM79.3463 13.1581H83.8685V12.9325C83.0671 12.9137 82.8572 12.7633 82.8572 12.237V7.03026C82.8572 6.95507 82.8572 6.86109 82.8381 6.72951C83.3915 5.92124 84.0402 5.48891 84.5364 5.48891C85.4904 5.48891 85.853 6.1468 85.853 7.27462V12.237C85.853 12.7633 85.6812 12.9137 84.918 12.9325V13.1581H89.7074V12.9325C88.6007 12.9137 88.3908 12.7633 88.3908 12.237V7.08665C88.3908 5.31973 87.5894 4.37988 85.9865 4.37988C84.8035 4.37988 83.5823 5.16936 82.8 6.33477C82.5901 5.05657 81.8077 4.37988 80.472 4.37988C79.2127 4.37988 78.125 5.11297 77.3046 6.31597V4.43627L73.4692 4.60545V4.83101C74.5759 4.84981 74.8049 5.20695 74.8049 5.77086V12.237C74.8049 12.7633 74.5759 12.9137 73.4692 12.9325V13.1581H78.2586V12.9325C77.4954 12.9137 77.3427 12.7633 77.3427 12.237V6.72951C77.8388 5.97763 78.2586 5.48891 78.9455 5.48891C79.8996 5.48891 80.3194 6.1468 80.3194 7.27462V12.237C80.3194 12.7633 80.1286 12.9137 79.3463 12.9325V13.1581Z" fill="black"/>
<g clip-path="url(#clip1)">
<path fill-rule="evenodd" clip-rule="evenodd" d="M44.3889 0.250488C46.6396 0.250488 48.1224 1.49823 48.1224 3.15776C48.1224 4.43919 47.26 5.45826 45.5399 6.23556C46.3983 6.97293 47.1331 7.7345 47.6526 8.44523C48.4552 6.79616 49.5561 5.92718 50.6666 5.92718C51.8332 5.92718 52.6256 6.66838 52.6256 7.74422C52.6256 8.67386 51.8873 9.42969 50.9528 9.42969C50.1254 9.42969 49.4669 8.82514 49.3543 8.04023C48.9986 8.34548 48.6546 8.78752 48.3232 9.38706C49.4412 11.165 50.1642 11.7354 50.991 11.7354C51.3109 11.7354 51.5259 11.6523 52.0529 11.3006L52.2837 11.1466L52.4689 11.3519L52.6216 11.5211L52.8106 11.7305L52.6203 11.9388C51.5032 13.1615 50.3983 13.7906 49.2546 13.7906C47.972 13.7906 47.1956 13.3099 46.3105 11.9218C45.3378 13.1462 44.0497 13.7906 42.3853 13.7906C40.0578 13.7906 38.4609 12.3551 38.4609 10.3006C38.4609 8.60863 39.5246 7.35285 41.6214 6.55966C40.7334 5.60987 40.35 4.76942 40.35 3.75926C40.35 1.69802 41.9579 0.250488 44.3889 0.250488ZM47.9143 8.82783C47.8906 8.86719 47.867 8.90719 47.8435 8.94783C47.7866 9.04622 47.7303 9.14835 47.6746 9.25429L47.5924 9.41075L47.6854 9.56125C47.7214 9.61954 47.7571 9.67678 47.7926 9.73297L47.7647 9.80141L47.4358 9.25803C46.9068 8.3838 45.9261 7.35526 44.7394 6.38783L44.3261 6.05087L44.8246 5.85541C46.6475 5.14059 47.4864 4.2513 47.4864 3.15776C47.4864 1.86811 46.3086 0.877055 44.3888 0.877055C42.297 0.877055 40.986 2.0573 40.986 3.75926C40.986 4.70426 41.3908 5.47486 42.4173 6.46808L42.7902 6.82887L42.2936 6.98928C40.1216 7.69079 39.097 8.78998 39.097 10.3006C39.097 11.9956 40.3967 13.164 42.3853 13.164C43.9996 13.164 45.1828 12.4913 46.0705 11.1795L46.3552 10.7589L46.6109 11.1971C47.5031 12.7265 48.1102 13.164 49.2546 13.164C49.9161 13.164 50.5859 12.8926 51.2783 12.3427C51.6137 12.2938 51.921 12.1454 52.4096 11.8194L52.3612 11.749L52.3839 11.7292L52.2909 11.6467L52.2312 11.56L52.212 11.5768L52.1475 11.5196C51.8533 11.8417 51.5639 12.1159 51.2783 12.3427C51.1861 12.3561 51.0918 12.362 50.991 12.362C49.8967 12.362 49.0124 11.667 47.7926 9.73297L48.0041 9.2144C48.2828 8.53102 48.6031 7.98039 48.9444 7.56122C49.119 7.41216 49.2983 7.2881 49.4826 7.18796L49.6626 7.09014L49.827 7.21164L49.9033 7.26803L50.0867 7.40351L50.0142 7.61773C49.9916 7.68445 49.9849 7.70607 49.98 7.7276C49.9754 7.74831 49.9733 7.76815 49.9733 7.80061C49.9733 8.35945 50.4016 8.80312 50.9528 8.80312C51.5304 8.80312 51.9896 8.33309 51.9896 7.74422C51.9896 7.02188 51.4891 6.55375 50.6666 6.55375C50.0952 6.55375 49.4927 6.88782 48.9444 7.56122C48.5808 7.87165 48.2379 8.29055 47.9143 8.82783Z" fill="black"/>
<path fill-rule="evenodd" clip-rule="evenodd" d="M42.2663 6.70424L42.4774 6.51514L42.691 6.70153C44.1088 7.93855 45.6815 9.68433 46.4337 10.8884L46.5503 11.075L46.4123 11.2469C45.7214 12.1077 44.8558 12.5501 43.8922 12.5501C42.1345 12.5501 40.9219 11.3979 40.9219 9.64282C40.9219 8.46705 41.3582 7.51745 42.2663 6.70424ZM45.9134 10.8583L45.892 11.2168C45.8535 11.1552 45.8127 11.0919 45.7696 11.0273C45.8183 10.9734 45.8662 10.9171 45.9134 10.8583ZM42.488 7.36442C41.8535 8.01099 41.5579 8.73836 41.5579 9.64282C41.5579 11.0467 42.4808 11.9235 43.8922 11.9235C44.5918 11.9235 45.2262 11.6287 45.7696 11.0273C45.054 9.95274 43.7284 8.4805 42.488 7.36442ZM42.488 7.36442C42.5531 7.29808 42.6218 7.2326 42.6941 7.16786L42.2693 7.17057C42.3418 7.23384 42.4148 7.29851 42.488 7.36442Z" fill="black"/>
<path fill-rule="evenodd" clip-rule="evenodd" d="M44.771 6.02455L44.547 6.21873L44.336 6.01089C42.9247 4.62065 42.4492 3.79685 42.4492 2.70666C42.4492 1.41214 43.1796 0.55127 44.2747 0.55127C45.4641 0.55127 46.1383 1.43878 46.1383 2.89463C46.1383 4.28373 45.7679 5.16037 44.771 6.02455ZM44.2747 1.17784C43.5587 1.17784 43.0853 1.73581 43.0853 2.70666C43.0853 3.54497 43.438 4.2042 44.5703 5.35259C44.5016 5.41976 44.4285 5.48682 44.3508 5.55418L44.7858 5.56784C44.711 5.49418 44.6392 5.42248 44.5703 5.35259C45.2565 4.68149 45.5022 3.99947 45.5022 2.89463C45.5022 1.75188 45.0662 1.17784 44.2747 1.17784Z" fill="black"/>
</g>
</g>
<defs>
<clipPath id="clip0">
<rect width="90" height="16.9173" fill="white"/>
</clipPath>
<clipPath id="clip1">
<rect width="14.8872" height="14.2105" fill="white" transform="translate(38.1621)"/>
</clipPath>
</defs>
</svg>
