<svg width="133" height="25" viewBox="0 0 133 25" fill="none" xmlns="http://www.w3.org/2000/svg">
<g clip-path="url(#clip0)">
<path fill-rule="evenodd" clip-rule="evenodd" d="M8.18691 19.9722L8.01772 20.3611C6.83341 23.3611 5.7055 24.2777 4.3802 24.4166C4.74677 24.0833 5.08514 23.5277 5.08514 22.8055C5.08514 21.7777 4.2956 20.9999 3.30868 20.9999C2.12437 20.9999 1.44762 21.9444 1.44762 22.8611C1.44762 24.1666 2.40635 24.9999 4.04182 24.9999C5.6491 24.9999 7.14359 24.0277 8.52529 20.7222L13.4599 9.0555C14.0239 7.66661 14.9544 7.0555 16.0823 6.94439V6.61106H10.6401V6.94439C12.6986 7.22217 13.1497 7.88883 12.3884 9.77772L9.93518 15.8888L6.69242 8.44439C6.26946 7.47217 6.55143 7.08328 8.15871 6.94439V6.61106H0.404297V6.94439C1.78599 7.13883 2.20896 7.44439 2.82931 8.77772L8.18691 19.9722ZM21.2143 19.6666C23.019 19.6666 24.5699 18.6666 25.7542 16.8055V19.4444H31.3938V19.1111C29.8147 19.0555 29.4481 18.8333 29.4481 18.0555V6.5555L23.7239 6.66661V6.99995C25.2748 7.0555 25.6978 7.52772 25.6978 8.36106V16.1944C24.9646 17.3333 24.2033 17.9444 23.1882 17.9444C21.7501 17.9444 21.1297 16.9999 21.1297 15.2777V6.5555L15.4338 6.66661V6.99995C17.041 7.02772 17.3794 7.52772 17.3794 8.36106V15.6111C17.3794 18.3055 18.8457 19.6666 21.2143 19.6666ZM40.8401 19.4444H47.523V19.1111C46.3386 19.0833 46.0285 18.8611 46.0285 18.0833V10.3888C46.0285 10.2777 46.0285 10.1388 46.0003 9.94439C46.818 8.74995 47.7767 8.11106 48.5099 8.11106C49.9198 8.11106 50.4555 9.08328 50.4555 10.7499V18.0833C50.4555 18.8611 50.2018 19.0833 49.0738 19.1111V19.4444H56.1515V19.1111C54.516 19.0833 54.2058 18.8611 54.2058 18.0833V10.4722C54.2058 7.86106 53.0215 6.47217 50.6529 6.47217C48.9046 6.47217 47.1 7.63883 45.9439 9.36106C45.6337 7.47217 44.4776 6.47217 42.5037 6.47217C40.6427 6.47217 39.0354 7.5555 37.8229 9.33328V6.5555L32.1551 6.8055V7.13883C33.7906 7.16661 34.129 7.69439 34.129 8.52772V18.0833C34.129 18.8611 33.7906 19.0833 32.1551 19.1111V19.4444H39.2328V19.1111C38.1049 19.0833 37.8793 18.8611 37.8793 18.0833V9.94439C38.6124 8.83328 39.2328 8.11106 40.2479 8.11106C41.6578 8.11106 42.2781 9.08328 42.2781 10.7499V18.0833C42.2781 18.8611 41.9962 19.0833 40.8401 19.1111V19.4444ZM84.6032 19.9722L84.434 20.3611C83.2497 23.3611 82.1217 24.2777 80.7964 24.4166C81.163 24.0833 81.5014 23.5277 81.5014 22.8055C81.5014 21.7777 80.7119 20.9999 79.7249 20.9999C78.5406 20.9999 77.8639 21.9444 77.8639 22.8611C77.8639 24.1666 78.8226 24.9999 80.4581 24.9999C82.0654 24.9999 83.5598 24.0277 84.9415 20.7222L89.8762 9.0555C90.4401 7.66661 91.3707 7.0555 92.4986 6.94439V6.61106H87.0564V6.94439C89.1148 7.22217 89.566 7.88883 88.8046 9.77772L86.3514 15.8888L83.1087 8.44439C82.6857 7.47217 82.9677 7.08328 84.575 6.94439V6.61106H76.8205V6.94439C78.2022 7.13883 78.6252 7.44439 79.2456 8.77772L84.6032 19.9722ZM97.6306 19.6666C99.4352 19.6666 100.986 18.6666 102.17 16.8055V19.4444H107.81V19.1111C106.231 19.0555 105.864 18.8333 105.864 18.0555V6.5555L100.14 6.66661V6.99995C101.691 7.0555 102.114 7.52772 102.114 8.36106V16.1944C101.381 17.3333 100.62 17.9444 99.6044 17.9444C98.1663 17.9444 97.546 16.9999 97.546 15.2777V6.5555L91.85 6.66661V6.99995C93.4573 7.02772 93.7957 7.52772 93.7957 8.36106V15.6111C93.7957 18.3055 95.262 19.6666 97.6306 19.6666ZM117.256 19.4444H123.939V19.1111C122.755 19.0833 122.445 18.8611 122.445 18.0833V10.3888C122.445 10.2777 122.445 10.1388 122.417 9.94439C123.234 8.74995 124.193 8.11106 124.926 8.11106C126.336 8.11106 126.872 9.08328 126.872 10.7499V18.0833C126.872 18.8611 126.618 19.0833 125.49 19.1111V19.4444H132.568V19.1111C130.932 19.0833 130.622 18.8611 130.622 18.0833V10.4722C130.622 7.86106 129.438 6.47217 127.069 6.47217C125.321 6.47217 123.516 7.63883 122.36 9.36106C122.05 7.47217 120.894 6.47217 118.92 6.47217C117.059 6.47217 115.452 7.5555 114.239 9.33328V6.5555L108.571 6.8055V7.13883C110.207 7.16661 110.545 7.69439 110.545 8.52772V18.0833C110.545 18.8611 110.207 19.0833 108.571 19.1111V19.4444H115.649V19.1111C114.521 19.0833 114.296 18.8611 114.296 18.0833V9.94439C115.029 8.83328 115.649 8.11106 116.664 8.11106C118.074 8.11106 118.694 9.08328 118.694 10.7499V18.0833C118.694 18.8611 118.412 19.0833 117.256 19.1111V19.4444Z" fill="black"/>
<g clip-path="url(#clip1)">
<path fill-rule="evenodd" clip-rule="evenodd" d="M65.598 0.370605C68.9241 0.370605 71.1154 2.21449 71.1154 4.6669C71.1154 6.56057 69.8409 8.06653 67.299 9.21522C68.5676 10.3049 69.6535 11.4303 70.4211 12.4806C71.6072 10.0437 73.2341 8.75949 74.8751 8.75949C76.5992 8.75949 77.7701 9.85482 77.7701 11.4447C77.7701 12.8185 76.6791 13.9354 75.2981 13.9354C74.0754 13.9354 73.1022 13.042 72.9358 11.8821C72.4102 12.3332 71.9018 12.9864 71.4121 13.8724C73.0643 16.4998 74.1327 17.3428 75.3545 17.3428C75.8272 17.3428 76.1449 17.22 76.9238 16.7003L77.2649 16.4726L77.5386 16.776L77.7642 17.026L78.0435 17.3355L77.7623 17.6433C76.1114 19.4502 74.4786 20.3799 72.7885 20.3799C70.8931 20.3799 69.7457 19.6695 68.4377 17.6183C67.0004 19.4276 65.0969 20.3799 62.6373 20.3799C59.1977 20.3799 56.8379 18.2585 56.8379 15.2225C56.8379 12.7221 58.4097 10.8663 61.5083 9.69416C60.1961 8.29058 59.6295 7.04858 59.6295 5.55579C59.6295 2.50974 62.0057 0.370605 65.598 0.370605ZM70.8079 13.046C70.7729 13.1042 70.738 13.1633 70.7033 13.2233C70.6192 13.3687 70.536 13.5197 70.4537 13.6762L70.3322 13.9074L70.4696 14.1298C70.5228 14.216 70.5756 14.3006 70.628 14.3836L70.5867 14.4847L70.1008 13.6817C69.319 12.3898 67.8697 10.8699 66.1161 9.44023L65.5053 8.94228L66.242 8.65343C68.9358 7.59709 70.1755 6.28292 70.1755 4.6669C70.1755 2.76109 68.4349 1.29653 65.598 1.29653C62.5068 1.29653 60.5694 3.04066 60.5694 5.55579C60.5694 6.9523 61.1675 8.09106 62.6846 9.55882L63.2357 10.092L62.5017 10.329C59.292 11.3657 57.7778 12.9901 57.7778 15.2225C57.7778 17.7273 59.6986 19.4539 62.6373 19.4539C65.0228 19.4539 66.7713 18.4597 68.0832 16.5212L68.5038 15.8996L68.8817 16.5473C70.2002 18.8073 71.0974 19.4539 72.7885 19.4539C73.7661 19.4539 74.7559 19.0529 75.7791 18.2402C76.2747 18.168 76.7289 17.9487 77.4509 17.4669L77.3794 17.3629L77.4129 17.3336L77.2754 17.2117L77.1874 17.0836L77.159 17.1084L77.0636 17.0239C76.6288 17.4998 76.2011 17.905 75.7791 18.2402C75.6428 18.26 75.5035 18.2688 75.3545 18.2688C73.7375 18.2688 72.4306 17.2416 70.628 14.3836L70.9405 13.6173C71.3524 12.6074 71.8258 11.7937 72.3301 11.1742C72.5881 10.954 72.8531 10.7706 73.1254 10.6227L73.3914 10.4781L73.6344 10.6576L73.7472 10.741L74.0182 10.9412L73.9111 11.2577C73.8777 11.3563 73.8677 11.3883 73.8606 11.4201C73.8537 11.4507 73.8506 11.48 73.8506 11.528C73.8506 12.3538 74.4836 13.0095 75.2981 13.0095C76.1517 13.0095 76.8302 12.3149 76.8302 11.4447C76.8302 10.3772 76.0906 9.68542 74.8751 9.68542C74.0307 9.68542 73.1404 10.1791 72.3301 11.1742C71.7929 11.633 71.2861 12.252 70.8079 13.046Z" fill="black"/>
<path fill-rule="evenodd" clip-rule="evenodd" d="M62.4633 9.90738L62.7753 9.62793L63.091 9.90338C65.1861 11.7314 67.5103 14.3113 68.6218 16.0906L68.7941 16.3664L68.5902 16.6204C67.5691 17.8926 66.29 18.5462 64.866 18.5462C62.2686 18.5462 60.4766 16.8436 60.4766 14.2499C60.4766 12.5124 61.1213 11.1091 62.4633 9.90738ZM67.8529 16.0461L67.8213 16.5759C67.7644 16.4849 67.7041 16.3914 67.6404 16.2959C67.7124 16.2163 67.7832 16.133 67.8529 16.0461ZM62.791 10.883C61.8532 11.8385 61.4165 12.9134 61.4165 14.2499C61.4165 16.3246 62.7802 17.6203 64.866 17.6203C65.8999 17.6203 66.8374 17.1847 67.6404 16.2959C66.583 14.7079 64.6241 12.5323 62.791 10.883ZM62.791 10.883C62.8872 10.7849 62.9887 10.6882 63.0955 10.5925L62.4678 10.5965C62.5749 10.69 62.6828 10.7856 62.791 10.883Z" fill="black"/>
<path fill-rule="evenodd" clip-rule="evenodd" d="M66.1635 8.90323L65.8325 9.19018L65.5207 8.88305C63.4351 6.82858 62.7324 5.61118 62.7324 4.00013C62.7324 2.08711 63.8118 0.814941 65.43 0.814941C67.1877 0.814941 68.184 2.12649 68.184 4.2779C68.184 6.33069 67.6366 7.62616 66.1635 8.90323ZM65.43 1.74087C64.372 1.74087 63.6724 2.56542 63.6724 4.00013C63.6724 5.23896 64.1937 6.21316 65.8669 7.91022C65.7654 8.00948 65.6573 8.10858 65.5425 8.20813L66.1853 8.22832C66.0748 8.11946 65.9687 8.0135 65.8669 7.91022C66.881 6.91849 67.2441 5.91062 67.2441 4.2779C67.2441 2.58917 66.5997 1.74087 65.43 1.74087Z" fill="black"/>
</g>
</g>
<defs>
<clipPath id="clip0">
<rect width="133" height="25" fill="white"/>
</clipPath>
<clipPath id="clip1">
<rect width="22" height="21" fill="white" transform="translate(56.3965)"/>
</clipPath>
</defs>
</svg>
