<svg width="250" height="52" viewBox="0 0 250 52" fill="none" xmlns="http://www.w3.org/2000/svg">
<path d="M91.6609 33.112C90.9142 33.112 90.2422 32.984 89.6449 32.728C89.0475 32.4613 88.5782 32.088 88.2369 31.608C87.8955 31.128 87.7249 30.568 87.7249 29.928H89.6769C89.7195 30.408 89.9062 30.8027 90.2369 31.112C90.5782 31.4213 91.0529 31.576 91.6609 31.576C92.2902 31.576 92.7809 31.4267 93.1329 31.128C93.4849 30.8187 93.6609 30.424 93.6609 29.944C93.6609 29.5707 93.5489 29.2667 93.3249 29.032C93.1115 28.7973 92.8395 28.616 92.5089 28.488C92.1889 28.36 91.7409 28.2213 91.1649 28.072C90.4395 27.88 89.8475 27.688 89.3889 27.496C88.9409 27.2933 88.5569 26.984 88.2369 26.568C87.9169 26.152 87.7569 25.5973 87.7569 24.904C87.7569 24.264 87.9169 23.704 88.2369 23.224C88.5569 22.744 89.0049 22.376 89.5809 22.12C90.1569 21.864 90.8235 21.736 91.5809 21.736C92.6582 21.736 93.5382 22.008 94.2209 22.552C94.9142 23.0853 95.2982 23.8213 95.3729 24.76H93.3569C93.3249 24.3547 93.1329 24.008 92.7809 23.72C92.4289 23.432 91.9649 23.288 91.3889 23.288C90.8662 23.288 90.4395 23.4213 90.1089 23.688C89.7782 23.9547 89.6129 24.3387 89.6129 24.84C89.6129 25.1813 89.7142 25.464 89.9169 25.688C90.1302 25.9013 90.3969 26.072 90.7169 26.2C91.0369 26.328 91.4742 26.4667 92.0289 26.616C92.7649 26.8187 93.3622 27.0213 93.8209 27.224C94.2902 27.4267 94.6849 27.7413 95.0049 28.168C95.3355 28.584 95.5009 29.144 95.5009 29.848C95.5009 30.4133 95.3462 30.9467 95.0369 31.448C94.7382 31.9493 94.2955 32.3547 93.7089 32.664C93.1329 32.9627 92.4502 33.112 91.6609 33.112ZM105.733 28.376C105.733 28.7067 105.712 29.0053 105.669 29.272H98.9331C98.9865 29.976 99.2478 30.5413 99.7171 30.968C100.186 31.3947 100.762 31.608 101.445 31.608C102.426 31.608 103.12 31.1973 103.525 30.376H105.493C105.226 31.1867 104.741 31.8533 104.037 32.376C103.344 32.888 102.48 33.144 101.445 33.144C100.602 33.144 99.8451 32.9573 99.1731 32.584C98.5118 32.2 97.9891 31.6667 97.6051 30.984C97.2318 30.2907 97.0451 29.4907 97.0451 28.584C97.0451 27.6773 97.2265 26.8827 97.5891 26.2C97.9625 25.5067 98.4798 24.9733 99.1411 24.6C99.8131 24.2267 100.581 24.04 101.445 24.04C102.277 24.04 103.018 24.2213 103.669 24.584C104.32 24.9467 104.826 25.4587 105.189 26.12C105.552 26.7707 105.733 27.5227 105.733 28.376ZM103.829 27.8C103.818 27.128 103.578 26.5893 103.109 26.184C102.64 25.7787 102.058 25.576 101.365 25.576C100.736 25.576 100.197 25.7787 99.7491 26.184C99.3011 26.5787 99.0345 27.1173 98.9491 27.8H103.829ZM115.608 28.376C115.608 28.7067 115.587 29.0053 115.544 29.272H108.808C108.861 29.976 109.123 30.5413 109.592 30.968C110.061 31.3947 110.637 31.608 111.32 31.608C112.301 31.608 112.995 31.1973 113.4 30.376H115.368C115.101 31.1867 114.616 31.8533 113.912 32.376C113.219 32.888 112.355 33.144 111.32 33.144C110.477 33.144 109.72 32.9573 109.048 32.584C108.387 32.2 107.864 31.6667 107.48 30.984C107.107 30.2907 106.92 29.4907 106.92 28.584C106.92 27.6773 107.101 26.8827 107.464 26.2C107.837 25.5067 108.355 24.9733 109.016 24.6C109.688 24.2267 110.456 24.04 111.32 24.04C112.152 24.04 112.893 24.2213 113.544 24.584C114.195 24.9467 114.701 25.4587 115.064 26.12C115.427 26.7707 115.608 27.5227 115.608 28.376ZM113.704 27.8C113.693 27.128 113.453 26.5893 112.984 26.184C112.515 25.7787 111.933 25.576 111.24 25.576C110.611 25.576 110.072 25.7787 109.624 26.184C109.176 26.5787 108.909 27.1173 108.824 27.8H113.704ZM132.231 24.04C132.925 24.04 133.543 24.184 134.087 24.472C134.642 24.76 135.074 25.1867 135.383 25.752C135.703 26.3173 135.863 27 135.863 27.8V33H134.055V28.072C134.055 27.2827 133.858 26.68 133.463 26.264C133.069 25.8373 132.53 25.624 131.847 25.624C131.165 25.624 130.621 25.8373 130.215 26.264C129.821 26.68 129.623 27.2827 129.623 28.072V33H127.815V28.072C127.815 27.2827 127.618 26.68 127.223 26.264C126.829 25.8373 126.29 25.624 125.607 25.624C124.925 25.624 124.381 25.8373 123.975 26.264C123.581 26.68 123.383 27.2827 123.383 28.072V33H121.559V24.184H123.383V25.192C123.682 24.8293 124.061 24.5467 124.519 24.344C124.978 24.1413 125.469 24.04 125.991 24.04C126.695 24.04 127.325 24.1893 127.879 24.488C128.434 24.7867 128.861 25.2187 129.159 25.784C129.426 25.2507 129.842 24.8293 130.407 24.52C130.973 24.2 131.581 24.04 132.231 24.04ZM142.008 33.144C141.176 33.144 140.424 32.9573 139.752 32.584C139.08 32.2 138.552 31.6667 138.168 30.984C137.784 30.2907 137.592 29.4907 137.592 28.584C137.592 27.688 137.79 26.8933 138.184 26.2C138.579 25.5067 139.118 24.9733 139.8 24.6C140.483 24.2267 141.246 24.04 142.088 24.04C142.931 24.04 143.694 24.2267 144.376 24.6C145.059 24.9733 145.598 25.5067 145.992 26.2C146.387 26.8933 146.584 27.688 146.584 28.584C146.584 29.48 146.382 30.2747 145.976 30.968C145.571 31.6613 145.016 32.2 144.312 32.584C143.619 32.9573 142.851 33.144 142.008 33.144ZM142.008 31.56C142.478 31.56 142.915 31.448 143.32 31.224C143.736 31 144.072 30.664 144.328 30.216C144.584 29.768 144.712 29.224 144.712 28.584C144.712 27.944 144.59 27.4053 144.344 26.968C144.099 26.52 143.774 26.184 143.368 25.96C142.963 25.736 142.526 25.624 142.056 25.624C141.587 25.624 141.15 25.736 140.744 25.96C140.35 26.184 140.035 26.52 139.8 26.968C139.566 27.4053 139.448 27.944 139.448 28.584C139.448 29.5333 139.688 30.2693 140.168 30.792C140.659 31.304 141.272 31.56 142.008 31.56ZM150.212 25.464C150.478 25.016 150.83 24.6693 151.268 24.424C151.716 24.168 152.244 24.04 152.852 24.04V25.928H152.388C151.673 25.928 151.129 26.1093 150.756 26.472C150.393 26.8347 150.212 27.464 150.212 28.36V33H148.388V24.184H150.212V25.464ZM162.608 28.376C162.608 28.7067 162.587 29.0053 162.544 29.272H155.808C155.861 29.976 156.123 30.5413 156.592 30.968C157.061 31.3947 157.637 31.608 158.32 31.608C159.301 31.608 159.995 31.1973 160.4 30.376H162.368C162.101 31.1867 161.616 31.8533 160.912 32.376C160.219 32.888 159.355 33.144 158.32 33.144C157.477 33.144 156.72 32.9573 156.048 32.584C155.387 32.2 154.864 31.6667 154.48 30.984C154.107 30.2907 153.92 29.4907 153.92 28.584C153.92 27.6773 154.101 26.8827 154.464 26.2C154.837 25.5067 155.355 24.9733 156.016 24.6C156.688 24.2267 157.456 24.04 158.32 24.04C159.152 24.04 159.893 24.2213 160.544 24.584C161.195 24.9467 161.701 25.4587 162.064 26.12C162.427 26.7707 162.608 27.5227 162.608 28.376ZM160.704 27.8C160.693 27.128 160.453 26.5893 159.984 26.184C159.515 25.7787 158.933 25.576 158.24 25.576C157.611 25.576 157.072 25.7787 156.624 26.184C156.176 26.5787 155.909 27.1173 155.824 27.8H160.704Z" fill="#E3CDB1"/>
<rect x="0.5" y="0.5" width="249" height="51" stroke="#E3CDB1"/>
</svg>
